<?xml version="1.0" encoding="iso-8859-1"?>
<!-- Generator: Adobe Illustrator 19.0.0, SVG Export Plug-In . SVG Version: 6.00 Build 0)  -->
<svg version="1.1" id="Capa_1" xmlns="http://www.w3.org/2000/svg" xmlns:xlink="http://www.w3.org/1999/xlink" x="0px" y="0px"
	 viewBox="0 0 58 58" style="enable-background:new 0 0 58 58;" xml:space="preserve">
<rect style="fill:#ECF0F1;" width="58" height="58"/>
<rect style="fill:#546A79;" width="58" height="12"/>
<circle style="fill:#ED7161;" cx="6" cy="6" r="3"/>
<circle style="fill:#F0C419;" cx="15" cy="6" r="3"/>
<circle style="fill:#4FBA6F;" cx="24" cy="6" r="3"/>
<rect y="12" style="fill:#556080;" width="12" height="46"/>
<g>
	<path style="fill:#768E9B;" d="M4,19h4c0.552,0,1-0.447,1-1s-0.448-1-1-1H4c-0.552,0-1,0.447-1,1S3.448,19,4,19z"/>
	<path style="fill:#768E9B;" d="M8,22H4c-0.552,0-1,0.447-1,1s0.448,1,1,1h4c0.552,0,1-0.447,1-1S8.552,22,8,22z"/>
	<path style="fill:#768E9B;" d="M8,27H4c-0.552,0-1,0.447-1,1s0.448,1,1,1h4c0.552,0,1-0.447,1-1S8.552,27,8,27z"/>
	<path style="fill:#768E9B;" d="M8,32H4c-0.552,0-1,0.447-1,1s0.448,1,1,1h4c0.552,0,1-0.447,1-1S8.552,32,8,32z"/>
	<path style="fill:#768E9B;" d="M8,37H4c-0.552,0-1,0.447-1,1s0.448,1,1,1h4c0.552,0,1-0.447,1-1S8.552,37,8,37z"/>
	<path style="fill:#768E9B;" d="M8,42H4c-0.552,0-1,0.447-1,1s0.448,1,1,1h4c0.552,0,1-0.447,1-1S8.552,42,8,42z"/>
	<path style="fill:#768E9B;" d="M8,47H4c-0.552,0-1,0.447-1,1s0.448,1,1,1h4c0.552,0,1-0.447,1-1S8.552,47,8,47z"/>
	<path style="fill:#768E9B;" d="M8,52H4c-0.552,0-1,0.447-1,1s0.448,1,1,1h4c0.552,0,1-0.447,1-1S8.552,52,8,52z"/>
</g>
<rect x="18" y="18" style="fill:#9777A8;" width="14" height="14"/>
<rect x="38" y="18" style="fill:#F29C1F;" width="14" height="14"/>
<rect x="18" y="38" style="fill:#26B99A;" width="14" height="14"/>
<rect x="38" y="38" style="fill:#ED7161;" width="14" height="14"/>
<g>
</g>
<g>
</g>
<g>
</g>
<g>
</g>
<g>
</g>
<g>
</g>
<g>
</g>
<g>
</g>
<g>
</g>
<g>
</g>
<g>
</g>
<g>
</g>
<g>
</g>
<g>
</g>
<g>
</g>
</svg>
