<?xml version="1.0" encoding="iso-8859-1"?>
<!-- Generator: Adobe Illustrator 19.1.0, SVG Export Plug-In . SVG Version: 6.00 Build 0)  -->
<svg version="1.1" id="Capa_1" xmlns="http://www.w3.org/2000/svg" xmlns:xlink="http://www.w3.org/1999/xlink" x="0px" y="0px"
	 viewBox="0 0 427.002 427.002" style="enable-background:new 0 0 427.002 427.002;" xml:space="preserve">
<g>
	<path style="fill:#F5ECE1;" d="M415.863,213.5c0-114.838-93.092-207.932-207.93-207.932C93.092,5.568,0,98.663,0,213.5
		c0,114.84,93.092,207.934,207.934,207.934C322.771,421.434,415.863,328.34,415.863,213.5z"/>
	<path style="fill:#F5ECE1;" d="M415.863,213.5c0-114.838-93.092-207.932-207.93-207.932C93.092,5.568,0,98.663,0,213.5
		c0,114.84,93.092,207.934,207.934,207.934C322.771,421.434,415.863,328.34,415.863,213.5z"/>
	<path style="fill:#E6DED3;" d="M356.665,358.788c-16.976-3.074-44.241-5.07-74.993-5.07c-46.424,0-164.644,1.958-199.582,8.927
		c-5.059,1.009-6.474,7.628-2.22,10.546c12.979,8.904,44.219,21.088,81.056,21.088c20.898,0,106.834,3.591,176.477-18.079
		C344.183,370.799,350.614,364.982,356.665,358.788z"/>
	<g>
		<circle style="fill:#F57078;" cx="260.173" cy="195.26" r="166.829"/>
		<path style="opacity:0.32;fill:#A84D52;" d="M284.982,347.15c-92.138,0-166.829-74.691-166.829-166.829
			c0-55.512,27.119-104.679,68.824-135.005C131.533,72.43,93.344,129.381,93.344,195.26c0,92.138,74.691,166.829,166.829,166.829
			c36.628,0,70.49-11.812,98.007-31.824C336.081,341.074,311.243,347.15,284.982,347.15z"/>
	</g>
	<g>
		<path style="fill:none;" d="M210.797,343.573c0.005-0.006,0.009-0.012,0.015-0.019c-0.006,0.007-0.01,0.014-0.016,0.021
			L210.797,343.573z"/>
		<path style="fill:none;" d="M133.372,307.803c0.009-0.007,0.017-0.014,0.026-0.021c-0.01,0.008-0.019,0.015-0.028,0.023
			L133.372,307.803z"/>
		
			<line style="fill:none;stroke:#F4B7A9;stroke-width:0;stroke-linecap:round;stroke-linejoin:round;" x1="133.37" y1="307.805" x2="133.372" y2="307.803"/>
		<path style="opacity:0.67;fill:none;stroke:#EA7053;stroke-width:0;stroke-linecap:round;stroke-linejoin:round;" d="
			M133.398,307.782c-0.009,0.007-0.017,0.014-0.026,0.021"/>
		<path style="opacity:0.44;fill:none;stroke:#F2AA99;stroke-width:0;stroke-linecap:round;stroke-linejoin:round;" d="
			M133.398,307.782c-0.009,0.007-0.017,0.014-0.026,0.021"/>
		<path style="fill:#FFFFFF;" d="M140.304,292.325c0.014,0.235,0.026,0.469,0.035,0.701
			C140.331,292.794,140.318,292.56,140.304,292.325z"/>
		<path style="fill:#FFFFFF;" d="M140.155,290.48c0.026,0.242,0.043,0.48,0.064,0.72C140.199,290.96,140.181,290.722,140.155,290.48
			z"/>
		<path style="fill:#FFFFFF;" d="M122.833,291.869c0.159-3.259,0.113-6.472-0.099-9.647H101.64c-0.57,0-1.12-0.084-1.645-0.228
			c0.123,0.114,0.271,0.225,0.352,0.34c0.248,0.352,0.14,0.841-0.233,1.056c-1.162,0.671-3.709,2.165-7.054,4.265
			c4.111,0.899,7.682,4.436,8.789,9.482c0.285,1.298-1.479,1.753-1.988,0.547c-1.525-3.613-5.806-7.78-10.014-7.981
			c-2.095,1.358-4.384,2.884-6.767,4.541c4.133,1.018,7.536,3.552,9.622,7.492c0.623,1.174-1.157,2.215-1.78,1.039
			c-2.115-3.991-5.705-6.415-10.181-6.883c-1.846,1.318-3.728,2.706-5.602,4.146c3.842,1.086,7.305,4.079,9.49,7.187
			c0.767,1.089-1.022,2.118-1.781,1.039c-2.177-3.094-5.925-6.134-9.864-6.543c-11.462,9.097-22.028,19.971-21.65,28.938
			c0.023,0.544,0.209,1.012,0.544,1.409c-0.335-0.397-0.521-0.866-0.544-1.41C54.427,323.179,122.163,305.622,122.833,291.869z"/>
		<path style="fill:#FFFFFF;" d="M140.361,294.828c0.003-0.122,0.001-0.247,0.002-0.37
			C140.362,294.581,140.363,294.706,140.361,294.828z"/>
		<path style="fill:#FFFFFF;" d="M55.563,333.633c-1.457-0.216-2.579-0.607-3.3-1.191C52.984,333.026,54.106,333.417,55.563,333.633
			z"/>
		<path style="fill:#FFFFFF;" d="M139.475,286.036c0.071,0.363,0.136,0.727,0.2,1.09C139.611,286.763,139.546,286.4,139.475,286.036
			z"/>
		<path style="fill:#FFFFFF;" d="M138.831,283.086c0.201,0.835,0.386,1.678,0.557,2.525
			C139.217,284.763,139.032,283.921,138.831,283.086z"/>
		<path style="fill:#FFFFFF;" d="M139.804,287.904c0.053,0.328,0.106,0.656,0.152,0.983
			C139.91,288.559,139.857,288.232,139.804,287.904z"/>
		<path style="fill:#FFFFFF;" d="M138.442,281.534c0.123,0.471,0.243,0.946,0.359,1.425
			C138.685,282.479,138.566,282.006,138.442,281.534z"/>
		<path style="fill:#FFFFFF;" d="M139.611,300.008c-0.033,0.107-0.073,0.208-0.109,0.313
			C139.537,300.216,139.578,300.115,139.611,300.008z"/>
		<path style="fill:#FFFFFF;" d="M140.049,298.135c-0.023,0.132-0.042,0.266-0.067,0.396
			C140.007,298.401,140.026,298.267,140.049,298.135z"/>
		<path style="fill:#FFFFFF;" d="M139.073,301.417c-0.056,0.124-0.112,0.248-0.172,0.369
			C138.961,301.665,139.017,301.541,139.073,301.417z"/>
		<path style="fill:#FFFFFF;" d="M140.275,296.395c-0.014,0.171-0.034,0.34-0.052,0.509
			C140.241,296.735,140.261,296.567,140.275,296.395z"/>
		<path style="fill:#FFFFFF;" d="M57.468,333.811c-0.686-0.032-1.322-0.091-1.905-0.177
			C56.145,333.72,56.782,333.779,57.468,333.811z"/>
		<path style="fill:#505B66;" d="M99.863,297.684c0.509,1.206,2.273,0.751,1.988-0.547c-1.108-5.047-4.678-8.583-8.789-9.482
			c-1.349-0.295-2.756-0.309-4.154,0.005c-1.284,0.288-1.323,2.195,0,2.062c0.313-0.031,0.627-0.033,0.942-0.018
			C94.057,289.904,98.338,294.071,99.863,297.684z"/>
		<path style="fill:#505B66;" d="M90.924,302.775c0.623,1.176,2.402,0.135,1.78-1.039c-2.086-3.939-5.488-6.474-9.622-7.492
			c-0.832-0.205-1.683-0.371-2.571-0.45c-1.325-0.116-1.314,1.947,0,2.063c0.079,0.007,0.153,0.026,0.232,0.034
			C85.219,296.36,88.809,298.784,90.924,302.775z"/>
		<path style="fill:#505B66;" d="M82.849,308.264c0.759,1.079,2.548,0.05,1.781-1.039c-2.185-3.107-5.647-6.1-9.49-7.187
			c-1.093-0.309-2.215-0.472-3.35-0.43c-1.326,0.051-1.33,2.113,0,2.062c0.399-0.015,0.797,0.009,1.194,0.05
			C76.924,302.13,80.672,305.17,82.849,308.264z"/>
		<path style="fill:#505B66;" d="M139.132,270.986c0.293-0.093,0.58-0.191,0.86-0.298
			C139.712,270.794,139.424,270.893,139.132,270.986L139.132,270.986z"/>
		<path style="fill:#505B66;" d="M101.64,269.872h19.399c-9.527-46.328-51.973-85.276-52.784-133.472
			c-0.362-21.526,57.959-84.257,103.602-127.705c-14.156,2.476-27.819,6.384-40.835,11.569
			C99.521,41.551,68.174,62.841,65.288,65.565C44.192,85.478,50.636,99.913,53.81,111.981c7.19,27.333,14.38,54.665,21.57,81.998
			c2.46,9.351,14.178,53.831,14.453,58.582c0.251,4.326-1.49,18.209,7.008,19.604C97.973,270.767,99.701,269.872,101.64,269.872z"/>
		<path style="fill:#6DC0CF;" d="M140.248,271.991c0.141,0.161,0.274,0.33,0.398,0.505
			C140.523,272.32,140.389,272.152,140.248,271.991z"/>
		<path style="fill:#6DC0CF;" d="M141.687,277.045c-0.034,0.208-0.077,0.412-0.132,0.613
			C141.61,277.457,141.653,277.253,141.687,277.045z"/>
		<path style="fill:#6DC0CF;" d="M141.775,276.05c0,0.266-0.023,0.527-0.055,0.784C141.752,276.577,141.775,276.316,141.775,276.05z
			"/>
		<path style="fill:#6DC0CF;" d="M139.748,271.482c0.147,0.133,0.287,0.274,0.421,0.421
			C140.035,271.756,139.895,271.615,139.748,271.482z"/>
		<path style="fill:#6DC0CF;" d="M139.148,281.096c-0.225,0.158-0.461,0.302-0.707,0.43
			C138.687,281.398,138.923,281.254,139.148,281.096z"/>
		<path style="fill:#6DC0CF;" d="M141.517,277.806c-0.073,0.246-0.161,0.486-0.263,0.718
			C141.356,278.292,141.444,278.052,141.517,277.806z"/>
		<path style="fill:#6DC0CF;" d="M140.675,272.534c0.136,0.195,0.261,0.399,0.374,0.61
			C140.937,272.933,140.811,272.73,140.675,272.534z"/>
		<path style="fill:#6DC0CF;" d="M141.399,273.941c0.056,0.154,0.106,0.311,0.15,0.47
			C141.505,274.251,141.455,274.095,141.399,273.941z"/>
		<path style="fill:#6DC0CF;" d="M141.064,273.174c0.1,0.189,0.188,0.384,0.268,0.583
			C141.252,273.558,141.163,273.363,141.064,273.174z"/>
		<path style="fill:#6DC0CF;" d="M141.607,274.636c0.037,0.158,0.066,0.32,0.091,0.483
			C141.673,274.956,141.644,274.795,141.607,274.636z"/>
		<path style="fill:#6DC0CF;" d="M141.731,275.334c0.027,0.232,0.044,0.467,0.044,0.707
			C141.775,275.802,141.758,275.567,141.731,275.334z"/>
		<path style="fill:#6DC0CF;" d="M139.755,280.605c-0.188,0.171-0.386,0.333-0.594,0.481
			C139.37,280.938,139.567,280.777,139.755,280.605z"/>
		<path style="fill:#6DC0CF;" d="M140.813,279.347c-0.279,0.439-0.611,0.841-0.989,1.196
			C140.202,280.187,140.534,279.787,140.813,279.347z"/>
		<path style="fill:#6DC0CF;" d="M141.201,278.635c-0.093,0.201-0.197,0.396-0.31,0.584
			C141.004,279.031,141.108,278.837,141.201,278.635z"/>
		<path style="fill:#6DC0CF;" d="M122.734,282.222c-0.279-4.181-0.861-8.293-1.695-12.349H101.64c-1.939,0-3.667,0.895-4.798,2.292
			c-0.859,1.061-1.376,2.411-1.376,3.883c0,2.84,1.92,5.225,4.53,5.946c0.524,0.145,1.074,0.228,1.645,0.228H122.734z"/>
		<path style="fill:#6DC0CF;" d="M139.132,270.986c0.188,0.131,0.366,0.274,0.538,0.425
			C139.498,271.26,139.32,271.117,139.132,270.986L139.132,270.986L139.132,270.986z"/>
		<path style="opacity:0.13;fill:#505B66;" d="M139.161,281.086c-0.005,0.003-0.009,0.007-0.013,0.01
			C139.152,281.093,139.157,281.089,139.161,281.086z"/>
		<path style="opacity:0.13;fill:#505B66;" d="M138.801,282.959c0.01,0.042,0.02,0.085,0.03,0.127
			C138.821,283.043,138.811,283.001,138.801,282.959z"/>
		<path style="opacity:0.13;fill:#505B66;" d="M116.441,317.569c-1.7,0.788-3.453,1.565-5.247,2.325
			C112.987,319.134,114.741,318.357,116.441,317.569z"/>
		<path style="opacity:0.13;fill:#505B66;" d="M132.277,308.632c-0.744,0.545-1.535,1.092-2.369,1.64
			C130.742,309.724,131.533,309.177,132.277,308.632z"/>
		<path style="opacity:0.13;fill:#505B66;" d="M125.883,312.733c-2.857,1.637-6.042,3.26-9.442,4.836
			C119.84,315.993,123.025,314.37,125.883,312.733z"/>
		<path style="opacity:0.13;fill:#505B66;" d="M139.957,288.886c0.075,0.534,0.142,1.066,0.199,1.594
			C140.099,289.952,140.032,289.42,139.957,288.886z"/>
		<path style="opacity:0.13;fill:#505B66;" d="M128.626,311.093c-0.875,0.548-1.791,1.095-2.744,1.64
			C126.835,312.187,127.751,311.64,128.626,311.093z"/>
		<path style="opacity:0.13;fill:#505B66;" d="M138.901,301.786c-0.214,0.43-0.445,0.845-0.714,1.228
			C138.456,302.631,138.687,302.216,138.901,301.786z"/>
		<path style="opacity:0.13;fill:#505B66;" d="M140.223,296.904c-0.046,0.419-0.104,0.83-0.174,1.231
			C140.119,297.733,140.177,297.323,140.223,296.904z"/>
		<path style="opacity:0.13;fill:#505B66;" d="M139.502,300.321c-0.127,0.378-0.27,0.744-0.429,1.096
			C139.232,301.064,139.375,300.699,139.502,300.321z"/>
		<path style="opacity:0.13;fill:#505B66;" d="M139.388,285.611c0.029,0.142,0.059,0.284,0.087,0.426
			C139.447,285.894,139.417,285.753,139.388,285.611z"/>
		<path style="opacity:0.13;fill:#505B66;" d="M139.981,298.531c-0.102,0.509-0.224,1.002-0.37,1.477
			C139.757,299.533,139.88,299.04,139.981,298.531z"/>
		<path style="opacity:0.13;fill:#505B66;" d="M140.22,291.2c0.033,0.377,0.062,0.753,0.084,1.125
			C140.282,291.953,140.253,291.578,140.22,291.2z"/>
		<path style="opacity:0.13;fill:#505B66;" d="M94.369,326.202c-3.172,1.048-6.336,2.017-9.427,2.888
			C88.033,328.219,91.197,327.25,94.369,326.202z"/>
		<path style="opacity:0.13;fill:#505B66;" d="M140.361,294.828c-0.011,0.533-0.042,1.054-0.086,1.567
			C140.319,295.882,140.35,295.361,140.361,294.828z"/>
		<path style="opacity:0.13;fill:#505B66;" d="M79.472,330.549c-1.192,0.299-2.365,0.58-3.517,0.843
			C77.107,331.129,78.281,330.848,79.472,330.549z"/>
		<circle style="opacity:0.13;fill:#505B66;" cx="141.775" cy="276.046" r="0.004"/>
		<polygon style="opacity:0.13;fill:#505B66;" points="138.442,281.534 138.44,281.526 138.441,281.526 138.44,281.526 		"/>
		<path style="opacity:0.13;fill:#505B66;" d="M100.074,324.236c-1.263,0.454-2.531,0.897-3.801,1.328
			C97.542,325.133,98.81,324.69,100.074,324.236z"/>
		<path style="opacity:0.13;fill:#505B66;" d="M139.674,287.127c0.045,0.259,0.088,0.518,0.13,0.777
			C139.763,287.645,139.72,287.386,139.674,287.127z"/>
		<path style="opacity:0.13;fill:#505B66;" d="M109.388,320.65c-3.03,1.25-6.156,2.451-9.314,3.586
			C103.232,323.101,106.358,321.9,109.388,320.65z"/>
		<path style="opacity:0.13;fill:#505B66;" d="M140.339,293.026c0.018,0.483,0.027,0.961,0.023,1.432
			C140.366,293.987,140.358,293.51,140.339,293.026z"/>
		<path style="opacity:0.13;fill:#505B66;" d="M140.646,272.496c0.009,0.013,0.02,0.025,0.029,0.039
			C140.666,272.521,140.656,272.509,140.646,272.496z"/>
		<path style="opacity:0.13;fill:#505B66;" d="M140.168,271.903c0.027,0.029,0.054,0.058,0.08,0.088
			C140.222,271.961,140.195,271.932,140.168,271.903z"/>
		<path style="opacity:0.13;fill:#505B66;" d="M141.05,273.145c0.005,0.01,0.009,0.02,0.014,0.03
			C141.059,273.165,141.055,273.154,141.05,273.145z"/>
		<path style="opacity:0.13;fill:#505B66;" d="M139.67,271.411c0.026,0.023,0.052,0.047,0.078,0.071
			C139.722,271.458,139.696,271.434,139.67,271.411z"/>
		<path style="opacity:0.13;fill:#505B66;" d="M141.332,273.758c0.024,0.06,0.045,0.122,0.067,0.183
			C141.376,273.88,141.356,273.818,141.332,273.758z"/>
		<path style="opacity:0.13;fill:#505B66;" d="M139.824,280.542c-0.023,0.021-0.046,0.042-0.069,0.063
			C139.778,280.584,139.801,280.564,139.824,280.542z"/>
		<path style="opacity:0.13;fill:#505B66;" d="M140.141,270.627c-0.05,0.02-0.098,0.042-0.149,0.061
			C140.043,270.669,140.09,270.647,140.141,270.627z"/>
		<path style="opacity:0.13;fill:#505B66;" d="M141.698,275.119c0.011,0.072,0.025,0.143,0.033,0.215
			C141.722,275.262,141.709,275.191,141.698,275.119z"/>
		<path style="opacity:0.13;fill:#505B66;" d="M141.72,276.834c-0.009,0.071-0.021,0.141-0.032,0.211
			C141.699,276.974,141.71,276.905,141.72,276.834z"/>
		<path style="opacity:0.13;fill:#505B66;" d="M141.254,278.524c-0.016,0.038-0.036,0.074-0.053,0.111
			C141.218,278.598,141.238,278.562,141.254,278.524z"/>
		<path style="opacity:0.13;fill:#505B66;" d="M140.89,279.22c-0.026,0.042-0.051,0.085-0.077,0.127
			C140.84,279.305,140.865,279.262,140.89,279.22z"/>
		<path style="opacity:0.13;fill:#505B66;" d="M141.556,277.657c-0.013,0.049-0.024,0.1-0.038,0.149
			C141.532,277.757,141.542,277.707,141.556,277.657z"/>
		<path style="opacity:0.13;fill:#505B66;" d="M141.549,274.411c0.02,0.075,0.04,0.15,0.058,0.226
			C141.589,274.561,141.569,274.486,141.549,274.411z"/>
		<path style="fill:#FFFFFF;" d="M135.6,282.222h-12.867c0.212,3.176,0.258,6.389,0.099,9.647
			c-0.67,13.753-68.406,31.31-71.498,38.79c0.023,0.544,0.209,1.012,0.544,1.41c0.112,0.132,0.24,0.257,0.384,0.374
			c0.721,0.584,1.843,0.975,3.3,1.191c0.583,0.087,1.219,0.145,1.905,0.177c4.458,0.208,11.004-0.71,18.488-2.418
			c1.152-0.263,2.325-0.544,3.517-0.843c1.787-0.448,3.616-0.936,5.47-1.459c3.091-0.872,6.255-1.84,9.427-2.888
			c0.635-0.209,1.269-0.422,1.904-0.638c1.269-0.431,2.537-0.874,3.801-1.328c3.158-1.135,6.285-2.337,9.314-3.586
			c0.606-0.25,1.208-0.502,1.806-0.755c1.793-0.761,3.547-1.537,5.247-2.325c3.4-1.576,6.585-3.2,9.442-4.836
			c0.952-0.546,1.868-1.093,2.744-1.64c0.438-0.274,0.865-0.547,1.282-0.821c0.834-0.548,1.625-1.095,2.369-1.64
			c0.377-0.276,0.741-0.552,1.093-0.827c0.01-0.008,0.018-0.015,0.028-0.023c2.068-1.62,3.703-3.22,4.789-4.768
			c0.269-0.383,0.499-0.798,0.714-1.228c0.06-0.121,0.116-0.245,0.172-0.369c0.159-0.352,0.302-0.718,0.429-1.096
			c0.035-0.105,0.076-0.206,0.109-0.313c0.146-0.475,0.269-0.968,0.37-1.477c0.026-0.129,0.044-0.264,0.067-0.396
			c0.07-0.402,0.129-0.812,0.174-1.231c0.018-0.169,0.038-0.337,0.052-0.509c0.044-0.513,0.074-1.034,0.086-1.567
			c0.002-0.122,0.001-0.247,0.002-0.37c0.004-0.471-0.005-0.949-0.023-1.432c-0.009-0.232-0.021-0.466-0.035-0.701
			c-0.022-0.372-0.051-0.748-0.084-1.125c-0.021-0.24-0.039-0.478-0.064-0.72c-0.056-0.528-0.123-1.06-0.199-1.594
			c-0.046-0.327-0.1-0.655-0.152-0.983c-0.042-0.259-0.084-0.518-0.13-0.777c-0.064-0.363-0.129-0.727-0.2-1.09
			c-0.028-0.142-0.058-0.284-0.087-0.426c-0.171-0.847-0.356-1.69-0.557-2.525c-0.01-0.042-0.02-0.085-0.03-0.127
			c-0.116-0.478-0.235-0.954-0.359-1.425c0,0-0.001-0.005-0.002-0.008C137.589,281.968,136.625,282.222,135.6,282.222z"/>
		<path style="opacity:0.13;fill:#1E2226;" d="M135.6,282.222h-12.867c0.212,3.176,0.258,6.389,0.099,9.647
			c-0.67,13.753-68.406,31.31-71.498,38.79c0.023,0.544,0.209,1.012,0.544,1.41c0.112,0.132,0.24,0.257,0.384,0.374
			c0.721,0.584,1.843,0.975,3.3,1.191c0.583,0.087,1.219,0.145,1.905,0.177c4.458,0.208,11.004-0.71,18.488-2.418
			c1.152-0.263,2.325-0.544,3.517-0.843c1.787-0.448,3.616-0.936,5.47-1.459c3.091-0.872,6.255-1.84,9.427-2.888
			c0.635-0.209,1.269-0.422,1.904-0.638c1.269-0.431,2.537-0.874,3.801-1.328c3.158-1.135,6.285-2.337,9.314-3.586
			c0.606-0.25,1.208-0.502,1.806-0.755c1.793-0.761,3.547-1.537,5.247-2.325c3.4-1.576,6.585-3.2,9.442-4.836
			c0.952-0.546,1.868-1.093,2.744-1.64c0.438-0.274,0.865-0.547,1.282-0.821c0.834-0.548,1.625-1.095,2.369-1.64
			c0.377-0.276,0.741-0.552,1.093-0.827c0.01-0.008,0.018-0.015,0.028-0.023c2.068-1.62,3.703-3.22,4.789-4.768
			c0.269-0.383,0.499-0.798,0.714-1.228c0.06-0.121,0.116-0.245,0.172-0.369c0.159-0.352,0.302-0.718,0.429-1.096
			c0.035-0.105,0.076-0.206,0.109-0.313c0.146-0.475,0.269-0.968,0.37-1.477c0.026-0.129,0.044-0.264,0.067-0.396
			c0.07-0.402,0.129-0.812,0.174-1.231c0.018-0.169,0.038-0.337,0.052-0.509c0.044-0.513,0.074-1.034,0.086-1.567
			c0.002-0.122,0.001-0.247,0.002-0.37c0.004-0.471-0.005-0.949-0.023-1.432c-0.009-0.232-0.021-0.466-0.035-0.701
			c-0.022-0.372-0.051-0.748-0.084-1.125c-0.021-0.24-0.039-0.478-0.064-0.72c-0.056-0.528-0.123-1.06-0.199-1.594
			c-0.046-0.327-0.1-0.655-0.152-0.983c-0.042-0.259-0.084-0.518-0.13-0.777c-0.064-0.363-0.129-0.727-0.2-1.09
			c-0.028-0.142-0.058-0.284-0.087-0.426c-0.171-0.847-0.356-1.69-0.557-2.525c-0.01-0.042-0.02-0.085-0.03-0.127
			c-0.116-0.478-0.235-0.954-0.359-1.425c0,0-0.001-0.005-0.002-0.008C137.589,281.968,136.625,282.222,135.6,282.222z"/>
		<path style="fill:#505B66;" d="M126.914,245.035c-13.506-25.245-27.012-50.489-40.517-75.733
			c-5.963-11.145-13.268-26.217-7.246-37.33c2.119-3.91,5.034-7.509,7.652-11.103c4.167-5.72,81.143-89.238,103.447-113.896
			c0.219-0.242,0.449-0.47,0.672-0.707c-6.442,0.522-12.802,1.335-19.064,2.43C126.213,52.143,67.892,114.874,68.254,136.4
			c0.811,48.196,43.257,87.144,52.784,133.472H135.6c1.314,0,2.53,0.414,3.531,1.114c0.293-0.093,0.58-0.192,0.86-0.297
			c0.051-0.019,0.098-0.041,0.149-0.061c0.104-0.041,0.201-0.085,0.302-0.128C134.721,259.622,129.017,248.967,126.914,245.035z"/>
		<path style="opacity:0.13;fill:#1E2226;" d="M126.914,245.035c-13.506-25.245-27.012-50.489-40.517-75.733
			c-5.963-11.145-13.268-26.217-7.246-37.33c2.119-3.91,5.034-7.509,7.652-11.103c4.167-5.72,81.143-89.238,103.447-113.896
			c0.219-0.242,0.449-0.47,0.672-0.707c-6.442,0.522-12.802,1.335-19.064,2.43C126.213,52.143,67.892,114.874,68.254,136.4
			c0.811,48.196,43.257,87.144,52.784,133.472H135.6c1.314,0,2.53,0.414,3.531,1.114c0.293-0.093,0.58-0.192,0.86-0.297
			c0.051-0.019,0.098-0.041,0.149-0.061c0.104-0.041,0.201-0.085,0.302-0.128C134.721,259.622,129.017,248.967,126.914,245.035z"/>
		<path style="fill:#6DC0CF;" d="M139.132,270.986L139.132,270.986c-1.001-0.7-2.217-1.114-3.531-1.114h-14.562
			c0.834,4.056,1.416,8.169,1.695,12.349H135.6c1.025,0,1.989-0.254,2.84-0.695l0.001,0c0.246-0.128,0.482-0.272,0.707-0.43
			c0.004-0.003,0.009-0.007,0.013-0.01c0.209-0.148,0.406-0.31,0.594-0.481c0.023-0.021,0.046-0.041,0.069-0.063
			c0.378-0.355,0.71-0.757,0.989-1.196c0.027-0.042,0.052-0.084,0.077-0.127c0.113-0.189,0.217-0.383,0.31-0.584
			c0.017-0.037,0.037-0.073,0.053-0.111c0.102-0.232,0.19-0.472,0.263-0.718c0.015-0.049,0.025-0.099,0.038-0.149
			c0.054-0.2,0.098-0.405,0.132-0.613c0.011-0.07,0.023-0.14,0.032-0.211c0.033-0.257,0.055-0.518,0.055-0.784v-0.002l0-0.006
			c0-0.239-0.017-0.475-0.044-0.707c-0.008-0.073-0.022-0.143-0.033-0.215c-0.025-0.163-0.054-0.324-0.091-0.483
			c-0.018-0.076-0.037-0.151-0.058-0.226c-0.044-0.159-0.094-0.316-0.15-0.47c-0.022-0.061-0.043-0.123-0.067-0.183
			c-0.08-0.2-0.168-0.395-0.268-0.583c-0.005-0.01-0.009-0.02-0.014-0.03c-0.113-0.211-0.238-0.415-0.374-0.61
			c-0.009-0.013-0.02-0.025-0.029-0.039c-0.124-0.175-0.257-0.344-0.398-0.505c-0.026-0.03-0.053-0.059-0.08-0.088
			c-0.133-0.147-0.274-0.288-0.421-0.421c-0.026-0.024-0.051-0.048-0.078-0.071C139.498,271.26,139.319,271.117,139.132,270.986z"/>
		<path style="opacity:0.13;fill:#1E2226;" d="M135.6,269.872h-14.562c0.834,4.056,1.416,8.169,1.695,12.349H135.6
			c1.025,0,1.957-0.322,2.84-0.695l0.001,0c3.605-2.05,3.334-5.483,3.334-5.483C141.875,275.207,141.082,270.069,135.6,269.872z"/>
		
			<line style="fill:none;stroke:#F4B7A9;stroke-width:0;stroke-linecap:round;stroke-linejoin:round;" x1="210.796" y1="343.575" x2="210.797" y2="343.573"/>
		<path style="opacity:0.67;fill:none;stroke:#EA7053;stroke-width:0;stroke-linecap:round;stroke-linejoin:round;" d="
			M210.812,343.555c-0.005,0.006-0.009,0.013-0.015,0.019"/>
		<path style="opacity:0.44;fill:none;stroke:#F2AA99;stroke-width:0;stroke-linecap:round;stroke-linejoin:round;" d="
			M210.812,343.555c-0.005,0.006-0.009,0.013-0.015,0.019"/>
		<path style="fill:#FFFFFF;" d="M206.893,347.93c-0.367,0.372-0.744,0.747-1.131,1.124
			C206.149,348.677,206.526,348.302,206.893,347.93z"/>
		<path style="fill:#FFFFFF;" d="M213.912,326.413c0.114,0.367,0.22,0.732,0.32,1.096
			C214.132,327.145,214.026,326.78,213.912,326.413z"/>
		<path style="fill:#FFFFFF;" d="M209.794,344.783c-0.548,0.64-1.131,1.29-1.75,1.949
			C208.663,346.073,209.246,345.424,209.794,344.783z"/>
		<path style="fill:#FFFFFF;" d="M213.423,324.934c0.153,0.433,0.298,0.864,0.433,1.295
			C213.72,325.799,213.576,325.367,213.423,324.934z"/>
		<path style="fill:#FFFFFF;" d="M211.715,320.72c0.397,0.876,0.773,1.758,1.12,2.642
			C212.488,322.478,212.112,321.596,211.715,320.72z"/>
		<path style="fill:#FFFFFF;" d="M210.352,317.888c0.44,0.865,0.866,1.745,1.272,2.632
			C211.218,319.632,210.792,318.753,210.352,317.888z"/>
		<path style="fill:#FFFFFF;" d="M212.922,323.586c0.147,0.379,0.289,0.758,0.424,1.137
			C213.211,324.344,213.069,323.965,212.922,323.586z"/>
		<path style="fill:#FFFFFF;" d="M165.284,377.453c-0.947,0.509-1.885,1.003-2.814,1.483
			C163.398,378.456,164.337,377.962,165.284,377.453z"/>
		<path style="fill:#FFFFFF;" d="M214.733,336.755c-0.091,0.329-0.192,0.654-0.316,0.966
			C214.541,337.409,214.642,337.085,214.733,336.755z"/>
		<path style="fill:#FFFFFF;" d="M215.118,334.382c-0.022,0.36-0.057,0.714-0.107,1.06
			C215.062,335.096,215.096,334.742,215.118,334.382z"/>
		<path style="fill:#FFFFFF;" d="M214.313,327.804c0.112,0.422,0.217,0.842,0.308,1.257
			C214.53,328.646,214.425,328.226,214.313,327.804z"/>
		<path style="fill:#FFFFFF;" d="M214.977,335.634c-0.047,0.288-0.105,0.571-0.174,0.848
			C214.872,336.204,214.93,335.922,214.977,335.634z"/>
		<path style="fill:#FFFFFF;" d="M215.14,333.219c0.005,0.301,0.001,0.599-0.011,0.892
			C215.142,333.817,215.145,333.52,215.14,333.219z"/>
		<path style="fill:#FFFFFF;" d="M205.763,349.054c-0.814,0.794-1.673,1.597-2.568,2.406
			C204.09,350.651,204.948,349.848,205.763,349.054z"/>
		<path style="fill:#FFFFFF;" d="M214.625,329.083c0.088,0.401,0.162,0.797,0.229,1.191
			C214.787,329.88,214.712,329.484,214.625,329.083z"/>
		<path style="fill:#FFFFFF;" d="M215.061,331.794c0.038,0.387,0.061,0.769,0.074,1.145
			C215.122,332.562,215.099,332.181,215.061,331.794z"/>
		<path style="fill:#FFFFFF;" d="M214.904,330.586c0.054,0.344,0.099,0.686,0.136,1.024
			C215.003,331.272,214.958,330.931,214.904,330.586z"/>
		<path style="fill:#FFFFFF;" d="M201.416,353.034c-0.482,0.418-0.973,0.837-1.472,1.258
			C200.443,353.871,200.934,353.452,201.416,353.034z"/>
		<path style="fill:#FFFFFF;" d="M210.066,344.461c0.25-0.297,0.496-0.593,0.73-0.886c0.006-0.007,0.01-0.014,0.016-0.021
			c0.206-0.258,0.399-0.513,0.592-0.767C210.988,343.336,210.542,343.895,210.066,344.461z"/>
		<path style="fill:#FFFFFF;" d="M210.292,317.77c-0.221-0.432-0.443-0.86-0.669-1.283l0,0
			C209.848,316.91,210.071,317.338,210.292,317.77z"/>
		<path style="fill:#FFFFFF;" d="M137.699,387.227c-0.821-0.157-1.462-0.464-1.884-0.947
			C136.236,386.762,136.878,387.069,137.699,387.227z"/>
		<path style="fill:#FFFFFF;" d="M140.192,387.305c-0.297,0.026-0.583,0.041-0.857,0.047
			C139.609,387.346,139.895,387.331,140.192,387.305z"/>
		<path style="fill:#FFFFFF;" d="M156.598,381.821c-1.034,0.48-2.047,0.934-3.034,1.36
			C154.552,382.755,155.564,382.301,156.598,381.821z"/>
		<path style="fill:#FFFFFF;" d="M152.102,383.799c-1.923,0.795-3.737,1.474-5.413,2.019
			C148.365,385.273,150.179,384.594,152.102,383.799z"/>
		<path style="fill:#FFFFFF;" d="M197.013,335.123c0.742-2.447,0.586-7.633-0.324-14.827l-23.17,5.524
			c-0.562,0.134-1.123,0.181-1.673,0.161c0.148,0.083,0.319,0.158,0.426,0.252c0.326,0.289,0.335,0.795,0.018,1.095
			c-0.988,0.934-3.146,3.005-5.949,5.86c4.263-0.08,8.612,2.566,10.888,7.279c0.586,1.212-1.046,2.075-1.83,1.006
			c-2.351-3.202-7.548-6.302-11.743-5.512c-1.74,1.824-3.631,3.86-5.584,6.045c4.307,0.035,8.246,1.753,11.223,5.141
			c0.889,1.01-0.62,2.454-1.51,1.442c-3.022-3.436-7.129-4.981-11.65-4.391c-1.509,1.733-3.037,3.542-4.546,5.402
			c4.042,0.168,8.157,2.304,11.039,4.852c1.012,0.893-0.51,2.327-1.511,1.443c-2.872-2.537-7.279-4.653-11.257-4.131
			c-9.158,11.657-17.015,24.854-14.536,33.601C138.616,377.168,192.341,346.335,197.013,335.123z"/>
		<path style="fill:#FFFFFF;" d="M146.689,385.818c-2.513,0.817-4.713,1.333-6.497,1.487
			C141.976,387.15,144.176,386.634,146.689,385.818z"/>
		<path style="fill:#505B66;" d="M175.4,341.474c0.784,1.069,2.416,0.206,1.83-1.006c-2.277-4.713-6.626-7.359-10.888-7.279
			c-1.399,0.026-2.789,0.343-4.092,0.981c-1.198,0.585-0.788,2.474,0.484,2.032c0.301-0.104,0.61-0.18,0.924-0.239
			C167.852,335.172,173.049,338.272,175.4,341.474z"/>
		<path style="fill:#505B66;" d="M167.788,348.59c0.89,1.012,2.399-0.432,1.51-1.442c-2.978-3.388-6.917-5.106-11.223-5.141
			c-0.873-0.007-1.759,0.049-2.657,0.181c-1.333,0.197-0.837,2.227,0.485,2.033c0.08-0.012,0.157-0.01,0.237-0.021
			C160.659,343.61,164.766,345.154,167.788,348.59z"/>
		<path style="fill:#505B66;" d="M161.12,355.896c1.001,0.885,2.523-0.55,1.511-1.443c-2.883-2.549-6.998-4.684-11.039-4.852
			c-1.15-0.048-2.294,0.055-3.402,0.363c-1.294,0.362-0.814,2.395,0.484,2.032c0.39-0.109,0.788-0.179,1.189-0.231
			C153.841,351.243,158.249,353.359,161.12,355.896z"/>
		<path style="fill:#505B66;" d="M301.206,76.383c-1.039,0.819-2.101,1.642-3.203,2.473
			C299.105,78.024,300.166,77.201,301.206,76.383z"/>
		<path style="fill:#505B66;" d="M190.284,211.642c0.189,1.053,0.394,2.189,0.611,3.395
			C190.678,213.831,190.474,212.695,190.284,211.642z"/>
		<path style="fill:#505B66;" d="M190.895,215.037c0.218,1.206,0.448,2.483,0.691,3.821
			C191.343,217.52,191.113,216.243,190.895,215.037z"/>
		<path style="fill:#505B66;" d="M184.484,188.209c0.856,2.767,1.632,5.372,2.293,7.685
			C186.116,193.581,185.341,190.976,184.484,188.209z"/>
		<path style="fill:#505B66;" d="M182.437,181.761c0.718,2.205,1.405,4.372,2.047,6.447
			C183.842,186.133,183.155,183.966,182.437,181.761z"/>
		<path style="fill:#505B66;" d="M189.608,207.891c0.197,1.087,0.424,2.346,0.676,3.751
			C190.032,210.237,189.805,208.979,189.608,207.891z"/>
		<path style="fill:#505B66;" d="M192.617,224.501c0.181,0.985,0.367,1.991,0.557,3.013
			C192.984,226.491,192.798,225.486,192.617,224.501z"/>
		<path style="fill:#505B66;" d="M209.33,304.91c-0.188,0.151-0.39,0.297-0.596,0.44C208.94,305.206,209.143,305.062,209.33,304.91z
			"/>
		<path style="fill:#505B66;" d="M209.981,304.327c-0.11,0.112-0.238,0.218-0.36,0.327
			C209.742,304.545,209.871,304.439,209.981,304.327z"/>
		<path style="fill:#505B66;" d="M211.769,295.182c0.311,1.26,0.464,2.508,0.392,3.736
			C212.234,297.69,212.081,296.442,211.769,295.182z"/>
		<path style="fill:#505B66;" d="M208.543,287.571c0.675,1.265,1.325,2.538,1.885,3.81
			C209.869,290.108,209.218,288.835,208.543,287.571z"/>
		<path style="fill:#505B66;" d="M196.498,137.249c-1.044,0.499-2.067,0.985-3.071,1.458
			C194.43,138.234,195.454,137.748,196.498,137.249z"/>
		<path style="fill:#505B66;" d="M221.61,124.734c-0.89,0.461-1.776,0.918-2.657,1.37
			C219.834,125.651,220.719,125.195,221.61,124.734z"/>
		<path style="fill:#505B66;" d="M244.163,112.657c-3.741,2.074-7.48,4.109-11.186,6.093
			C236.682,116.766,240.422,114.731,244.163,112.657z"/>
		<path style="fill:#505B66;" d="M175.549,162.379c2.307,5.819,4.735,12.768,6.888,19.382
			C180.284,175.148,177.857,168.198,175.549,162.379z"/>
		<path style="fill:#505B66;" d="M261.768,102.59c-2.455,1.451-4.934,2.896-7.429,4.329
			C256.834,105.486,259.312,104.041,261.768,102.59z"/>
		<path style="fill:#505B66;" d="M286.573,86.995c-1.626,1.101-3.289,2.207-4.985,3.315
			C283.284,89.201,284.947,88.096,286.573,86.995z"/>
		<path style="fill:#505B66;" d="M250.451,109.134c-1.221,0.691-2.443,1.379-3.667,2.064
			C248.008,110.513,249.23,109.825,250.451,109.134z"/>
		<path style="fill:#505B66;" d="M208.601,305.446c-0.25,0.17-0.51,0.335-0.776,0.494
			C208.091,305.78,208.351,305.616,208.601,305.446z"/>
		<path style="fill:#505B66;" d="M174.282,147.226c-0.954,0.383-1.82,0.718-2.592,1.004
			C172.462,147.944,173.328,147.608,174.282,147.226z"/>
		<path style="fill:#505B66;" d="M178.554,145.448c-0.831,0.356-1.634,0.696-2.383,1.008
			C176.92,146.144,177.723,145.804,178.554,145.448z"/>
		<path style="fill:#505B66;" d="M189.581,140.506c-1.072,0.497-2.123,0.982-3.134,1.442
			C187.457,141.488,188.509,141.003,189.581,140.506z"/>
		<path style="fill:#505B66;" d="M230.476,120.084c-1.559,0.829-3.113,1.65-4.654,2.457
			C227.363,121.733,228.916,120.912,230.476,120.084z"/>
		<path style="fill:#505B66;" d="M170.618,313.651l24.123-5.751c-7.862-43.387-31.487-124.733-55.657-165.253
			c-2.4-12.8,81.693-94.001,143.819-123.141c-23.259-8.995-48.535-13.938-74.968-13.938c-5.729,0-11.401,0.242-17.013,0.696
			c-0.222,0.238-0.453,0.466-0.672,0.707C167.945,31.63,90.969,115.148,86.802,120.868c-2.618,3.595-5.533,7.194-7.652,11.103
			c-6.022,11.113,1.283,26.185,7.246,37.33c13.506,25.244,27.012,50.489,40.517,75.733c2.103,3.931,7.807,14.587,13.529,25.464
			c-0.101,0.043-0.198,0.088-0.302,0.128c0.103-0.04,0.204-0.082,0.304-0.125c6.846,13.016,13.717,26.349,14.473,28.863
			c1.263,4.203,2.809,18.293,11.51,17.671C167.215,315.394,168.708,314.107,170.618,313.651z"/>
		<path style="fill:#505B66;" d="M189.608,207.891c-0.345-1.903-0.6-3.28-0.748-3.993c-0.358-1.722-1.091-4.536-2.082-8.005
			c0.992,3.469,1.725,6.283,2.082,8.005C189.008,204.611,189.263,205.989,189.608,207.891z"/>
		<path style="fill:#6DC0CF;" d="M209.159,306.669c0.178,0.126,0.35,0.262,0.514,0.406
			C209.509,306.93,209.337,306.795,209.159,306.669z"/>
		<path style="fill:#6DC0CF;" d="M210.216,315.898c-0.184,0.208-0.382,0.405-0.594,0.589
			C209.834,316.303,210.032,316.106,210.216,315.898z"/>
		<path style="fill:#6DC0CF;" d="M211.445,313.785c-0.171,0.497-0.403,0.97-0.691,1.407
			C211.041,314.754,211.273,314.282,211.445,313.785z"/>
		<path style="fill:#6DC0CF;" d="M210.239,307.64c0.144,0.163,0.278,0.337,0.404,0.516
			C210.517,307.977,210.382,307.804,210.239,307.64z"/>
		<path style="fill:#6DC0CF;" d="M210.751,308.32c0.092,0.139,0.179,0.283,0.26,0.43C210.93,308.602,210.843,308.459,210.751,308.32
			z"/>
		<path style="fill:#6DC0CF;" d="M211.777,312.101c-0.014,0.26-0.044,0.516-0.09,0.769
			C211.732,312.617,211.762,312.36,211.777,312.101z"/>
		<path style="fill:#6DC0CF;" d="M209.708,307.104c0.18,0.161,0.352,0.333,0.513,0.515
			C210.06,307.436,209.888,307.265,209.708,307.104z"/>
		<path style="fill:#6DC0CF;" d="M208.455,306.234c-0.205-0.109-0.415-0.208-0.631-0.293h0
			C208.04,306.027,208.25,306.126,208.455,306.234z"/>
		<path style="fill:#6DC0CF;" d="M211.12,308.956c0.075,0.149,0.142,0.303,0.205,0.459
			C211.262,309.258,211.194,309.105,211.12,308.956z"/>
		<path style="fill:#6DC0CF;" d="M211.747,311.096c-0.028-0.262-0.067-0.525-0.13-0.788c-0.057-0.238-0.13-0.468-0.211-0.693
			c0.082,0.225,0.155,0.455,0.211,0.693C211.68,310.571,211.719,310.834,211.747,311.096z"/>
		<path style="fill:#6DC0CF;" d="M211.66,312.99c-0.044,0.22-0.101,0.436-0.168,0.648C211.559,313.426,211.616,313.21,211.66,312.99
			z"/>
		<path style="fill:#6DC0CF;" d="M210.699,315.272c-0.144,0.211-0.299,0.415-0.467,0.608
			C210.4,315.686,210.555,315.483,210.699,315.272z"/>
		<path style="fill:#6DC0CF;" d="M208.546,306.284c0.177,0.097,0.349,0.203,0.515,0.317
			C208.894,306.487,208.723,306.382,208.546,306.284z"/>
		<path style="fill:#6DC0CF;" d="M211.765,311.31c0.015,0.212,0.021,0.423,0.014,0.633
			C211.785,311.734,211.781,311.523,211.765,311.31z"/>
		<path style="fill:#6DC0CF;" d="M173.519,325.82l23.17-5.524c-0.461-3.645-1.117-7.809-1.948-12.396l-24.123,5.751
			c-1.91,0.455-3.402,1.743-4.19,3.386c-0.598,1.247-0.79,2.699-0.444,4.149c0.667,2.799,3.12,4.699,5.862,4.795
			C172.396,326.001,172.957,325.954,173.519,325.82z"/>
		<path style="opacity:0.13;fill:#505B66;" d="M211.779,311.944c-0.001,0.052,0,0.105-0.003,0.157
			C211.779,312.049,211.778,311.996,211.779,311.944z"/>
		<path style="opacity:0.13;fill:#505B66;" d="M211.011,308.75c0.037,0.068,0.074,0.136,0.109,0.206
			C211.085,308.886,211.048,308.818,211.011,308.75z"/>
		<path style="opacity:0.13;fill:#505B66;" d="M212.835,323.362c0.029,0.075,0.058,0.15,0.087,0.224
			C212.893,323.511,212.865,323.437,212.835,323.362z"/>
		<path style="opacity:0.13;fill:#505B66;" d="M211.624,320.52c0.031,0.067,0.061,0.133,0.091,0.2
			C211.685,320.653,211.654,320.586,211.624,320.52z"/>
		<path style="opacity:0.13;fill:#505B66;" d="M210.292,317.77c0.02,0.039,0.04,0.078,0.06,0.118
			C210.332,317.848,210.312,317.809,210.292,317.77z"/>
		<path style="opacity:0.13;fill:#505B66;" d="M211.747,311.096c0.008,0.072,0.013,0.143,0.018,0.215
			C211.76,311.239,211.755,311.168,211.747,311.096z"/>
		<path style="opacity:0.13;fill:#505B66;" d="M211.686,312.87c-0.007,0.041-0.018,0.08-0.026,0.12
			C211.668,312.95,211.679,312.911,211.686,312.87z"/>
		<path style="opacity:0.13;fill:#505B66;" d="M211.492,313.638c-0.016,0.049-0.031,0.098-0.047,0.147
			C211.461,313.736,211.476,313.687,211.492,313.638z"/>
		<path style="opacity:0.13;fill:#505B66;" d="M211.325,309.414c0.027,0.067,0.056,0.132,0.081,0.2
			C211.381,309.546,211.352,309.481,211.325,309.414z"/>
		<path style="opacity:0.13;fill:#505B66;" d="M210.753,315.192c-0.018,0.027-0.036,0.053-0.055,0.08
			C210.717,315.245,210.736,315.219,210.753,315.192z"/>
		<path style="opacity:0.13;fill:#505B66;" d="M210.232,315.879c-0.005,0.006-0.01,0.013-0.016,0.018
			C210.221,315.892,210.226,315.885,210.232,315.879z"/>
		<path style="opacity:0.13;fill:#505B66;" d="M209.981,304.327c0.201-0.205,0.381-0.416,0.531-0.634
			c0.793-1.154,1.27-2.343,1.5-3.555c-0.23,1.212-0.707,2.401-1.5,3.555C210.362,303.911,210.181,304.122,209.981,304.327z"/>
		<path style="opacity:0.13;fill:#505B66;" d="M162.47,378.936c-0.913,0.471-1.818,0.93-2.709,1.37
			C160.652,379.866,161.557,379.407,162.47,378.936z"/>
		<path style="opacity:0.13;fill:#505B66;" d="M138.551,387.337c-0.306-0.019-0.585-0.059-0.852-0.111
			C137.966,387.278,138.246,387.318,138.551,387.337z"/>
		<path style="opacity:0.13;fill:#505B66;" d="M139.335,387.352c-0.274,0.005-0.535,0.001-0.784-0.015
			C138.8,387.353,139.062,387.357,139.335,387.352z"/>
		<path style="opacity:0.13;fill:#505B66;" d="M168.075,375.926c-0.937,0.523-1.867,1.03-2.792,1.527
			C166.208,376.956,167.138,376.449,168.075,375.926z"/>
		<path style="opacity:0.13;fill:#505B66;" d="M196.407,357.174c-0.993,0.784-2.011,1.569-3.05,2.351
			C194.396,358.743,195.414,357.958,196.407,357.174z"/>
		<path style="opacity:0.13;fill:#505B66;" d="M199.943,354.292c-0.675,0.568-1.36,1.137-2.065,1.707
			C198.583,355.428,199.268,354.859,199.943,354.292z"/>
		<path style="opacity:0.13;fill:#505B66;" d="M193.357,359.526c-1.039,0.783-2.099,1.564-3.176,2.341
			C191.258,361.09,192.318,360.308,193.357,359.526z"/>
		<path style="opacity:0.13;fill:#505B66;" d="M213.347,324.723c0.025,0.07,0.051,0.141,0.076,0.211
			C213.398,324.864,213.372,324.793,213.347,324.723z"/>
		<polygon style="opacity:0.13;fill:#505B66;" points="207.824,305.941 207.824,305.941 207.824,305.941 		"/>
		<path style="opacity:0.13;fill:#505B66;" d="M324.794,41.499c-0.148,0.431-0.299,0.86-0.465,1.282
			c-0.589,1.502-1.168,3.064-1.759,4.652c0.591-1.588,1.17-3.15,1.759-4.652C324.495,42.359,324.647,41.93,324.794,41.499
			L324.794,41.499z"/>
		<path style="opacity:0.13;fill:#505B66;" d="M135.327,385.367L135.327,385.367c0.1,0.354,0.264,0.657,0.488,0.913
			C135.591,386.024,135.427,385.72,135.327,385.367L135.327,385.367z"/>
		<polygon style="opacity:0.13;fill:#505B66;" points="209.622,316.487 209.622,316.486 209.622,316.487 		"/>
		<path style="opacity:0.13;fill:#505B66;" d="M212.313,341.534c0.918-1.339,1.629-2.616,2.103-3.811l0.001-0.001l-0.001,0.001
			C213.942,338.918,213.231,340.195,212.313,341.534z"/>
		<path style="opacity:0.13;fill:#505B66;" d="M169.382,149.78c-0.186-0.232-0.365-0.433-0.538-0.599
			c0.713-0.194,1.678-0.519,2.846-0.951c-1.168,0.432-2.134,0.757-2.846,0.951C169.016,149.347,169.196,149.547,169.382,149.78z"/>
		<path style="opacity:0.13;fill:#505B66;" d="M214.621,329.062c0.002,0.007,0.003,0.014,0.004,0.021
			C214.623,329.076,214.622,329.069,214.621,329.062z"/>
		<path style="opacity:0.13;fill:#505B66;" d="M214.854,330.274c0.018,0.104,0.034,0.209,0.05,0.312
			C214.888,330.482,214.871,330.378,214.854,330.274z"/>
		<path style="opacity:0.13;fill:#505B66;" d="M215.039,331.61c0.006,0.061,0.016,0.123,0.022,0.184
			C215.055,331.733,215.046,331.671,215.039,331.61z"/>
		<path style="opacity:0.13;fill:#505B66;" d="M215.135,332.939c0.003,0.094,0.003,0.186,0.005,0.279
			C215.138,333.126,215.139,333.033,215.135,332.939z"/>
		<path style="opacity:0.13;fill:#505B66;" d="M214.233,327.509c0.027,0.098,0.054,0.197,0.08,0.295
			C214.287,327.706,214.26,327.608,214.233,327.509z"/>
		<path style="opacity:0.13;fill:#505B66;" d="M213.856,326.229c0.019,0.061,0.037,0.123,0.056,0.184
			C213.893,326.352,213.876,326.29,213.856,326.229z"/>
		<path style="opacity:0.13;fill:#505B66;" d="M210.066,344.461c-0.09,0.107-0.18,0.214-0.272,0.322
			C209.886,344.675,209.976,344.568,210.066,344.461z"/>
		<path style="opacity:0.13;fill:#505B66;" d="M203.195,351.461c-0.576,0.522-1.172,1.047-1.779,1.573
			C202.023,352.507,202.619,351.983,203.195,351.461z"/>
		<path style="opacity:0.13;fill:#505B66;" d="M212.313,341.534c-0.282,0.411-0.59,0.831-0.91,1.253
			C211.724,342.365,212.031,341.945,212.313,341.534z"/>
		<path style="opacity:0.13;fill:#505B66;" d="M208.044,346.732c-0.372,0.396-0.755,0.795-1.151,1.198
			C207.29,347.528,207.672,347.129,208.044,346.732z"/>
		<path style="opacity:0.13;fill:#505B66;" d="M214.804,336.482c-0.023,0.092-0.045,0.183-0.07,0.274
			C214.758,336.665,214.781,336.573,214.804,336.482z"/>
		<path style="opacity:0.13;fill:#505B66;" d="M215.011,335.442c-0.009,0.065-0.023,0.127-0.034,0.192
			C214.988,335.569,215.002,335.507,215.011,335.442z"/>
		<path style="opacity:0.13;fill:#505B66;" d="M215.129,334.111c-0.004,0.09-0.006,0.181-0.011,0.271
			C215.124,334.292,215.125,334.201,215.129,334.111z"/>
		<path style="opacity:0.13;fill:#505B66;" d="M210.643,308.156c0.037,0.053,0.072,0.109,0.108,0.163
			C210.715,308.265,210.681,308.21,210.643,308.156z"/>
		<path style="opacity:0.13;fill:#505B66;" d="M209.585,130.852c-1.73,0.864-3.43,1.706-5.096,2.525
			C206.155,132.558,207.855,131.716,209.585,130.852z"/>
		<path style="opacity:0.13;fill:#505B66;" d="M214.858,128.196c-1.784,0.905-3.543,1.791-5.273,2.655
			C211.315,129.988,213.074,129.102,214.858,128.196z"/>
		<path style="opacity:0.13;fill:#505B66;" d="M218.953,126.104c-1.377,0.707-2.745,1.407-4.095,2.092
			C216.208,127.511,217.577,126.811,218.953,126.104z"/>
		<path style="opacity:0.13;fill:#505B66;" d="M204.489,133.376c-1.666,0.819-3.298,1.614-4.89,2.384
			C201.191,134.99,202.823,134.195,204.489,133.376z"/>
		<path style="opacity:0.13;fill:#505B66;" d="M199.599,135.76c-1.054,0.509-2.083,1.003-3.101,1.489
			C197.516,136.763,198.545,136.269,199.599,135.76z"/>
		<path style="opacity:0.13;fill:#505B66;" d="M225.822,122.541c-1.415,0.742-2.817,1.471-4.212,2.193
			C223.005,124.012,224.407,123.283,225.822,122.541z"/>
		<path style="opacity:0.13;fill:#505B66;" d="M176.171,146.455c-0.667,0.277-1.289,0.53-1.889,0.77
			C174.882,146.985,175.503,146.733,176.171,146.455z"/>
		<path style="opacity:0.13;fill:#505B66;" d="M186.446,141.948c-2.913,1.328-5.553,2.497-7.893,3.499
			C180.893,144.445,183.533,143.276,186.446,141.948z"/>
		<path style="opacity:0.13;fill:#505B66;" d="M193.427,138.707c-1.32,0.623-2.602,1.222-3.846,1.799
			C190.825,139.929,192.107,139.33,193.427,138.707z"/>
		<path style="opacity:0.13;fill:#505B66;" d="M319.402,55.419c-0.465,1.05-0.952,2.085-1.469,3.095
			C318.449,57.504,318.937,56.469,319.402,55.419z"/>
		<path style="opacity:0.13;fill:#505B66;" d="M169.382,149.78c1.115,1.395,2.459,3.943,3.914,7.212
			C171.841,153.723,170.497,151.174,169.382,149.78z"/>
		<path style="opacity:0.13;fill:#505B66;" d="M304.012,74.131c-0.904,0.744-1.846,1.496-2.806,2.251
			C302.166,75.627,303.108,74.875,304.012,74.131z"/>
		<path style="opacity:0.13;fill:#505B66;" d="M317.932,58.514c-0.517,1.01-1.064,1.995-1.646,2.944
			C316.869,60.509,317.415,59.524,317.932,58.514z"/>
		<path style="opacity:0.13;fill:#505B66;" d="M321.364,50.631c-0.412,1.07-0.837,2.142-1.281,3.204
			C320.527,52.773,320.952,51.701,321.364,50.631z"/>
		<path style="opacity:0.13;fill:#505B66;" d="M254.339,106.919c-1.292,0.742-2.589,1.48-3.887,2.215
			C251.75,108.398,253.046,107.661,254.339,106.919z"/>
		<path style="opacity:0.13;fill:#505B66;" d="M232.977,118.749c-0.836,0.447-1.67,0.892-2.501,1.334
			C231.307,119.642,232.141,119.197,232.977,118.749z"/>
		<path style="opacity:0.13;fill:#505B66;" d="M246.784,111.197c-0.873,0.488-1.747,0.975-2.621,1.459
			C245.037,112.172,245.911,111.686,246.784,111.197z"/>
		<path style="opacity:0.13;fill:#505B66;" d="M265.59,100.314c-1.265,0.76-2.542,1.518-3.822,2.275
			C263.048,101.833,264.325,101.075,265.59,100.314z"/>
		<path style="opacity:0.13;fill:#505B66;" d="M281.589,90.31c-2.543,1.663-5.158,3.333-7.83,5.002
			C276.43,93.643,279.046,91.973,281.589,90.31z"/>
		<path style="opacity:0.13;fill:#505B66;" d="M208.455,306.234c0.03,0.016,0.061,0.034,0.091,0.05
			C208.515,306.268,208.485,306.25,208.455,306.234z"/>
		<path style="opacity:0.13;fill:#505B66;" d="M202.442,271.518c0.225,0.861,0.448,1.694,0.67,2.495
			C202.891,273.212,202.667,272.379,202.442,271.518z"/>
		<path style="opacity:0.13;fill:#505B66;" d="M208.734,305.35c-0.045,0.032-0.087,0.065-0.133,0.096
			C208.647,305.415,208.689,305.382,208.734,305.35z"/>
		<path style="opacity:0.13;fill:#505B66;" d="M203.112,274.013c0.221,0.801,0.441,1.57,0.658,2.305
			C203.553,275.583,203.334,274.814,203.112,274.013z"/>
		<path style="opacity:0.13;fill:#505B66;" d="M204.094,277.392c0.215,0.699,0.426,1.36,0.635,1.983
			C204.52,278.753,204.308,278.091,204.094,277.392z"/>
		<path style="opacity:0.13;fill:#505B66;" d="M209.061,306.602c0.033,0.022,0.066,0.044,0.098,0.067
			C209.127,306.646,209.094,306.624,209.061,306.602z"/>
		<path style="opacity:0.13;fill:#505B66;" d="M210.221,307.618c0.006,0.007,0.012,0.015,0.018,0.022
			C210.233,307.633,210.227,307.626,210.221,307.618z"/>
		<path style="opacity:0.13;fill:#505B66;" d="M209.673,307.075c0.011,0.01,0.024,0.019,0.035,0.029
			C209.696,307.093,209.684,307.085,209.673,307.075z"/>
		<path style="opacity:0.13;fill:#505B66;" d="M209.62,304.653c-0.096,0.086-0.186,0.173-0.29,0.257
			C209.434,304.827,209.523,304.739,209.62,304.653z"/>
		<path style="opacity:0.13;fill:#505B66;" d="M196.279,243.715c0.221,1.111,0.443,2.222,0.668,3.331
			C196.722,245.937,196.5,244.826,196.279,243.715z"/>
		<path style="opacity:0.13;fill:#505B66;" d="M197.285,248.708c0.226,1.106,0.453,2.207,0.682,3.301
			C197.738,250.915,197.51,249.813,197.285,248.708z"/>
		<path style="opacity:0.13;fill:#505B66;" d="M201.763,268.853c0.228,0.915,0.454,1.804,0.679,2.665
			C202.218,270.657,201.991,269.767,201.763,268.853z"/>
		<path style="opacity:0.13;fill:#505B66;" d="M198.654,255.266c0.23,1.076,0.461,2.142,0.692,3.193
			C199.115,257.407,198.884,256.342,198.654,255.266z"/>
		<path style="opacity:0.13;fill:#505B66;" d="M200.732,264.576c0.23,0.983,0.46,1.946,0.689,2.885
			C201.192,266.522,200.962,265.56,200.732,264.576z"/>
		<path style="opacity:0.13;fill:#505B66;" d="M199.346,258.459c0.231,1.052,0.462,2.089,0.693,3.11
			C199.809,260.548,199.577,259.511,199.346,258.459z"/>
		<path style="fill:#FFFFFF;" d="M206.983,317.842l-10.294,2.454c0.909,7.193,1.065,12.379,0.324,14.827
			c-4.672,11.212-58.396,42.045-61.686,50.244l0,0c0.1,0.354,0.264,0.657,0.488,0.913c0.422,0.482,1.063,0.789,1.884,0.947
			c0.267,0.051,0.547,0.092,0.852,0.111c0.249,0.015,0.511,0.02,0.784,0.015c0.274-0.006,0.559-0.021,0.857-0.047
			c1.784-0.155,3.984-0.67,6.497-1.487c1.676-0.545,3.49-1.223,5.413-2.019c0.481-0.199,0.968-0.405,1.462-0.618
			c0.988-0.426,2-0.88,3.034-1.36c1.034-0.48,2.09-0.986,3.162-1.515c0.891-0.44,1.796-0.899,2.709-1.37
			c0.929-0.479,1.867-0.974,2.814-1.483c0.925-0.497,1.854-1.004,2.792-1.527c7.386-4.12,15.107-9.007,22.106-14.059
			c1.077-0.777,2.137-1.558,3.176-2.341c1.039-0.783,2.057-1.567,3.05-2.351c0.497-0.392,0.987-0.784,1.471-1.175
			c0.705-0.57,1.39-1.139,2.065-1.707c0.5-0.42,0.991-0.839,1.472-1.258c0.607-0.526,1.203-1.051,1.779-1.573
			c0.895-0.809,1.753-1.613,2.568-2.406c0.387-0.377,0.764-0.752,1.131-1.124c0.396-0.402,0.779-0.801,1.151-1.198
			c0.619-0.659,1.202-1.309,1.75-1.949c0.092-0.108,0.182-0.215,0.272-0.322c0.476-0.567,0.922-1.125,1.338-1.674
			c0.32-0.423,0.628-0.842,0.91-1.253c0.918-1.339,1.629-2.616,2.103-3.811l0.001-0.002c0.124-0.312,0.225-0.636,0.316-0.966
			c0.025-0.09,0.048-0.182,0.07-0.274c0.068-0.277,0.127-0.56,0.174-0.848c0.01-0.064,0.024-0.127,0.034-0.192
			c0.051-0.346,0.085-0.7,0.107-1.06c0.005-0.09,0.007-0.181,0.011-0.271c0.012-0.294,0.016-0.591,0.011-0.892
			c-0.002-0.093-0.001-0.185-0.005-0.279c-0.013-0.377-0.037-0.758-0.074-1.145c-0.006-0.061-0.015-0.123-0.022-0.184
			c-0.036-0.338-0.082-0.68-0.136-1.024c-0.016-0.104-0.033-0.208-0.05-0.312c-0.067-0.394-0.141-0.79-0.229-1.191
			c-0.002-0.007-0.003-0.014-0.004-0.021c-0.091-0.416-0.196-0.836-0.308-1.257c-0.026-0.098-0.053-0.197-0.08-0.295
			c-0.1-0.364-0.206-0.729-0.32-1.096c-0.019-0.061-0.037-0.123-0.056-0.184c-0.136-0.43-0.281-0.862-0.433-1.295
			c-0.025-0.07-0.051-0.141-0.076-0.211c-0.136-0.379-0.277-0.757-0.424-1.137c-0.029-0.075-0.057-0.15-0.087-0.224
			c-0.348-0.883-0.723-1.766-1.12-2.642c-0.03-0.067-0.061-0.134-0.091-0.2c-0.406-0.888-0.832-1.768-1.272-2.632
			c-0.02-0.039-0.04-0.078-0.06-0.118c-0.221-0.432-0.443-0.86-0.669-1.283l0,0l0,0
			C208.887,317.123,207.995,317.601,206.983,317.842z"/>
		<path style="opacity:0.13;fill:#1E2226;" d="M206.983,317.842l-10.294,2.454c0.909,7.193,1.065,12.379,0.324,14.827
			c-4.672,11.212-58.396,42.045-61.686,50.244l0,0c0.1,0.354,0.264,0.657,0.488,0.913c0.422,0.482,1.063,0.789,1.884,0.947
			c0.267,0.051,0.547,0.092,0.852,0.111c0.249,0.015,0.511,0.02,0.784,0.015c0.274-0.006,0.559-0.021,0.857-0.047
			c1.784-0.155,3.984-0.67,6.497-1.487c1.676-0.545,3.49-1.223,5.413-2.019c0.481-0.199,0.968-0.405,1.462-0.618
			c0.988-0.426,2-0.88,3.034-1.36c1.034-0.48,2.09-0.986,3.162-1.515c0.891-0.44,1.796-0.899,2.709-1.37
			c0.929-0.479,1.867-0.974,2.814-1.483c0.925-0.497,1.854-1.004,2.792-1.527c7.386-4.12,15.107-9.007,22.106-14.059
			c1.077-0.777,2.137-1.558,3.176-2.341c1.039-0.783,2.057-1.567,3.05-2.351c0.497-0.392,0.987-0.784,1.471-1.175
			c0.705-0.57,1.39-1.139,2.065-1.707c0.5-0.42,0.991-0.839,1.472-1.258c0.607-0.526,1.203-1.051,1.779-1.573
			c0.895-0.809,1.753-1.613,2.568-2.406c0.387-0.377,0.764-0.752,1.131-1.124c0.396-0.402,0.779-0.801,1.151-1.198
			c0.619-0.659,1.202-1.309,1.75-1.949c0.092-0.108,0.182-0.215,0.272-0.322c0.476-0.567,0.922-1.125,1.338-1.674
			c0.32-0.423,0.628-0.842,0.91-1.253c0.918-1.339,1.629-2.616,2.103-3.811l0.001-0.002c0.124-0.312,0.225-0.636,0.316-0.966
			c0.025-0.09,0.048-0.182,0.07-0.274c0.068-0.277,0.127-0.56,0.174-0.848c0.01-0.064,0.024-0.127,0.034-0.192
			c0.051-0.346,0.085-0.7,0.107-1.06c0.005-0.09,0.007-0.181,0.011-0.271c0.012-0.294,0.016-0.591,0.011-0.892
			c-0.002-0.093-0.001-0.185-0.005-0.279c-0.013-0.377-0.037-0.758-0.074-1.145c-0.006-0.061-0.015-0.123-0.022-0.184
			c-0.036-0.338-0.082-0.68-0.136-1.024c-0.016-0.104-0.033-0.208-0.05-0.312c-0.067-0.394-0.141-0.79-0.229-1.191
			c-0.002-0.007-0.003-0.014-0.004-0.021c-0.091-0.416-0.196-0.836-0.308-1.257c-0.026-0.098-0.053-0.197-0.08-0.295
			c-0.1-0.364-0.206-0.729-0.32-1.096c-0.019-0.061-0.037-0.123-0.056-0.184c-0.136-0.43-0.281-0.862-0.433-1.295
			c-0.025-0.07-0.051-0.141-0.076-0.211c-0.136-0.379-0.277-0.757-0.424-1.137c-0.029-0.075-0.057-0.15-0.087-0.224
			c-0.348-0.883-0.723-1.766-1.12-2.642c-0.03-0.067-0.061-0.134-0.091-0.2c-0.406-0.888-0.832-1.768-1.272-2.632
			c-0.02-0.039-0.04-0.078-0.06-0.118c-0.221-0.432-0.443-0.86-0.669-1.283l0,0l0,0
			C208.887,317.123,207.995,317.601,206.983,317.842z"/>
		<path style="fill:#505B66;" d="M324.794,41.499c-12.986-8.84-27.027-16.244-41.892-21.993
			c-62.125,29.14-146.219,110.341-143.819,123.141c24.17,40.52,47.795,121.866,55.657,165.253l9.342-2.227
			c1.295-0.309,2.59-0.187,3.741,0.268l0.001,0c0.267-0.16,0.526-0.325,0.777-0.494c0.046-0.031,0.088-0.064,0.133-0.096
			c0.206-0.144,0.408-0.289,0.596-0.44c0.103-0.083,0.193-0.171,0.29-0.257c0.123-0.108,0.251-0.214,0.36-0.327
			c0.2-0.205,0.381-0.416,0.531-0.634c0.793-1.154,1.27-2.343,1.5-3.555c0.077-0.404,0.126-0.811,0.15-1.22
			c0.072-1.227-0.081-2.476-0.392-3.736c-0.311-1.26-0.78-2.53-1.341-3.802c-0.56-1.272-1.211-2.545-1.885-3.81
			c-0.674-1.265-1.373-2.521-2.027-3.759c-0.562-1.062-1.161-2.57-1.788-4.437c-0.209-0.622-0.421-1.284-0.635-1.983
			c-0.107-0.349-0.215-0.708-0.324-1.075c-0.217-0.734-0.436-1.503-0.658-2.305c-0.221-0.801-0.445-1.634-0.67-2.495
			c-0.225-0.861-0.451-1.751-0.679-2.665c-0.114-0.458-0.228-0.921-0.342-1.391c-0.229-0.939-0.459-1.902-0.689-2.885
			c-0.23-0.983-0.461-1.987-0.692-3.007c-0.231-1.021-0.462-2.058-0.693-3.11c-0.231-1.052-0.462-2.117-0.692-3.193
			c-0.23-1.076-0.46-2.163-0.688-3.257c-0.229-1.094-0.456-2.196-0.682-3.301c-0.113-0.553-0.226-1.107-0.338-1.661
			c-0.225-1.109-0.447-2.22-0.668-3.331c-1.103-5.554-2.155-11.09-3.105-16.201c-0.19-1.022-0.376-2.028-0.557-3.013
			c-0.363-1.971-0.707-3.86-1.031-5.643c-0.243-1.337-0.473-2.614-0.691-3.821c-0.217-1.206-0.421-2.342-0.611-3.395
			c-0.252-1.404-0.479-2.663-0.676-3.751c-0.345-1.903-0.6-3.28-0.748-3.993c-0.358-1.722-1.091-4.536-2.082-8.005
			c-0.661-2.313-1.437-4.918-2.293-7.685c-0.642-2.076-1.329-4.243-2.047-6.447c-2.153-6.614-4.581-13.563-6.888-19.382
			c-0.769-1.94-1.525-3.754-2.253-5.388c-1.456-3.268-2.799-5.817-3.914-7.212c-0.186-0.232-0.365-0.433-0.538-0.599
			c0.713-0.194,1.678-0.519,2.846-0.951c0.772-0.286,1.638-0.621,2.592-1.004c0.6-0.241,1.221-0.493,1.889-0.77
			c0.749-0.311,1.552-0.652,2.383-1.008c2.339-1.002,4.98-2.171,7.893-3.499c1.011-0.461,2.063-0.946,3.134-1.442
			c1.244-0.577,2.526-1.176,3.846-1.799c1.003-0.473,2.027-0.959,3.071-1.458c1.018-0.486,2.047-0.98,3.101-1.489
			c1.593-0.77,3.224-1.565,4.89-2.384c1.666-0.819,3.366-1.661,5.096-2.525c1.73-0.864,3.489-1.75,5.273-2.655
			c1.35-0.685,2.719-1.385,4.095-2.092c0.881-0.452,1.766-0.909,2.657-1.37c1.395-0.722,2.797-1.451,4.212-2.193
			c1.541-0.808,3.095-1.629,4.654-2.457c0.832-0.442,1.666-0.887,2.501-1.334c3.706-1.984,7.445-4.019,11.186-6.093
			c0.874-0.485,1.748-0.971,2.621-1.459c1.224-0.684,2.446-1.372,3.667-2.064c1.298-0.735,2.595-1.473,3.887-2.215
			c2.495-1.433,4.974-2.878,7.429-4.329c1.281-0.757,2.557-1.515,3.822-2.275c2.768-1.663,5.497-3.333,8.168-5.002
			c2.672-1.67,5.287-3.339,7.83-5.002c1.695-1.109,3.358-2.214,4.985-3.315c4.065-2.753,7.9-5.475,11.43-8.139
			c1.101-0.831,2.163-1.654,3.203-2.473c0.96-0.756,1.902-1.508,2.806-2.251c3.137-2.582,5.925-5.087,8.289-7.485
			c1.51-1.532,2.82-3.289,3.986-5.188c0.583-0.949,1.129-1.934,1.646-2.944c0.517-1.01,1.005-2.045,1.469-3.095
			c0.233-0.525,0.459-1.053,0.681-1.584c0.444-1.062,0.869-2.133,1.281-3.204s0.812-2.14,1.206-3.198
			c0.591-1.588,1.17-3.15,1.759-4.652C324.495,42.359,324.647,41.93,324.794,41.499z"/>
		<path style="opacity:0.13;fill:#1E2226;" d="M324.794,41.499c-12.986-8.84-27.027-16.244-41.892-21.993
			c-62.125,29.14-146.219,110.341-143.819,123.141c24.17,40.52,47.795,121.866,55.657,165.253l9.342-2.227
			c2.473-0.589,2.025,2.382,5.676-1.183c5.649-5.682,0.167-14.621-2.583-19.453c-2.333-4.415-4.124-9.914-5.594-17.201
			c-4.069-15.997-6.512-30.607-9.623-45.934c-2.652-20.132-6.689-31.217-11.666-46.381c-1.453-4.426-3.027-8.812-4.744-13.142
			c-0.769-1.94-1.525-3.754-2.253-5.388c-1.456-3.268-2.799-5.817-3.914-7.212c-0.186-0.232-0.365-0.433-0.538-0.599
			c0.713-0.194,1.678-0.519,2.846-0.951c0.772-0.286,1.638-0.621,2.592-1.004c0.6-0.241,1.221-0.493,1.889-0.77
			c0.749-0.311,1.552-0.652,2.383-1.008c2.339-1.002,4.98-2.171,7.893-3.499c1.011-0.461,2.063-0.946,3.134-1.442
			c1.244-0.577,2.526-1.176,3.846-1.799c1.003-0.473,2.027-0.959,3.071-1.458c1.018-0.486,2.047-0.98,3.101-1.489
			c1.593-0.77,3.224-1.565,4.89-2.384c1.666-0.819,3.366-1.661,5.096-2.525c1.73-0.864,3.489-1.75,5.273-2.655
			c1.35-0.685,2.719-1.385,4.095-2.092c0.881-0.452,1.766-0.909,2.657-1.37c1.395-0.722,2.797-1.451,4.212-2.193
			c1.541-0.808,3.095-1.629,4.654-2.457c0.832-0.442,1.666-0.887,2.501-1.334c3.706-1.984,7.445-4.019,11.186-6.093
			c0.874-0.485,1.748-0.971,2.621-1.459c1.224-0.684,2.446-1.372,3.667-2.064c1.298-0.735,2.595-1.473,3.887-2.215
			c2.495-1.433,4.974-2.878,7.429-4.329c1.281-0.757,2.557-1.515,3.822-2.275c2.768-1.663,5.497-3.333,8.168-5.002
			c2.672-1.67,5.287-3.339,7.83-5.002c1.695-1.109,3.358-2.214,4.985-3.315c4.065-2.753,7.9-5.475,11.43-8.139
			c1.101-0.831,2.163-1.654,3.203-2.473c0.96-0.756,1.902-1.508,2.806-2.251c3.137-2.582,5.925-5.087,8.289-7.485
			c1.51-1.532,2.82-3.289,3.986-5.188c0.583-0.949,1.129-1.934,1.646-2.944c0.517-1.01,1.005-2.045,1.469-3.095
			c0.233-0.525,0.459-1.053,0.681-1.584c0.444-1.062,0.869-2.133,1.281-3.204s0.812-2.14,1.206-3.198
			c0.591-1.588,1.17-3.15,1.759-4.652C324.495,42.359,324.647,41.93,324.794,41.499z"/>
		<path style="fill:#6DC0CF;" d="M204.082,305.673l-9.342,2.227c0.831,4.587,1.487,8.751,1.948,12.396l10.294-2.454
			c1.012-0.241,1.904-0.719,2.639-1.356v0c0.212-0.183,0.41-0.38,0.594-0.589c0.005-0.006,0.01-0.012,0.016-0.018
			c0.169-0.193,0.324-0.396,0.467-0.608c0.018-0.027,0.037-0.053,0.055-0.08c0.288-0.437,0.52-0.91,0.691-1.407
			c0.017-0.048,0.032-0.098,0.047-0.147c0.067-0.212,0.123-0.428,0.168-0.648c0.008-0.04,0.019-0.08,0.026-0.12
			c0.046-0.253,0.076-0.509,0.09-0.769c0.003-0.052,0.001-0.105,0.003-0.157c0.006-0.21,0.001-0.421-0.014-0.633
			c-0.005-0.072-0.01-0.143-0.018-0.215c-0.028-0.262-0.067-0.525-0.13-0.788c-0.057-0.238-0.13-0.468-0.211-0.693
			c-0.025-0.068-0.054-0.133-0.081-0.2c-0.063-0.156-0.13-0.31-0.205-0.459c-0.035-0.07-0.071-0.138-0.109-0.206
			c-0.081-0.148-0.168-0.291-0.26-0.43c-0.036-0.055-0.071-0.11-0.108-0.163c-0.127-0.179-0.26-0.353-0.404-0.516
			c-0.006-0.007-0.012-0.015-0.018-0.022c-0.161-0.182-0.333-0.354-0.513-0.515c-0.011-0.01-0.023-0.019-0.035-0.029
			c-0.164-0.145-0.336-0.28-0.514-0.406c-0.032-0.023-0.066-0.045-0.098-0.067c-0.167-0.114-0.338-0.22-0.515-0.317
			c-0.03-0.017-0.06-0.034-0.091-0.05c-0.205-0.108-0.415-0.208-0.631-0.293h0h0C206.673,305.487,205.377,305.365,204.082,305.673z"
			/>
		<path style="opacity:0.13;fill:#1E2226;" d="M204.082,305.673l-9.342,2.227c0.831,4.587,1.487,8.751,1.948,12.396l10.294-2.454
			c1.012-0.241,1.904-0.719,2.639-1.356v0c0.212-0.183,0.41-0.38,0.594-0.589c0.005-0.006,0.01-0.012,0.016-0.018
			c0.169-0.193,0.324-0.396,0.467-0.608c0.018-0.027,0.037-0.053,0.055-0.08c0.288-0.437,0.52-0.91,0.691-1.407
			c0.017-0.048,0.032-0.098,0.047-0.147c0.067-0.212,0.123-0.428,0.168-0.648c0.008-0.04,0.019-0.08,0.026-0.12
			c0.046-0.253,0.076-0.509,0.09-0.769c0.003-0.052,0.001-0.105,0.003-0.157c0.006-0.21,0.001-0.421-0.014-0.633
			c-0.005-0.072-0.01-0.143-0.018-0.215c-0.028-0.262-0.067-0.525-0.13-0.788c-0.057-0.238-0.13-0.468-0.211-0.693
			c-0.025-0.068-0.054-0.133-0.081-0.2c-0.063-0.156-0.13-0.31-0.205-0.459c-0.035-0.07-0.071-0.138-0.109-0.206
			c-0.081-0.148-0.168-0.291-0.26-0.43c-0.036-0.055-0.071-0.11-0.108-0.163c-0.127-0.179-0.26-0.353-0.404-0.516
			c-0.006-0.007-0.012-0.015-0.018-0.022c-0.161-0.182-0.333-0.354-0.513-0.515c-0.011-0.01-0.023-0.019-0.035-0.029
			c-0.164-0.145-0.336-0.28-0.514-0.406c-0.032-0.023-0.066-0.045-0.098-0.067c-0.167-0.114-0.338-0.22-0.515-0.317
			c-0.03-0.017-0.06-0.034-0.091-0.05c-0.205-0.108-0.415-0.208-0.631-0.293h0h0C206.673,305.487,205.377,305.365,204.082,305.673z"
			/>
	</g>
</g>
<g>
</g>
<g>
</g>
<g>
</g>
<g>
</g>
<g>
</g>
<g>
</g>
<g>
</g>
<g>
</g>
<g>
</g>
<g>
</g>
<g>
</g>
<g>
</g>
<g>
</g>
<g>
</g>
<g>
</g>
</svg>
